<svg preserveAspectRatio="none" width="100%" height="100%" overflow="visible" style="display: block;" viewBox="0 0 24 15.6895" fill="none" xmlns="http://www.w3.org/2000/svg">
<path id="Path 3384" d="M11.9972 5.48972C14.8709 5.44427 17.6505 6.48269 19.7491 8.38578C21.8476 10.2889 23.101 12.9077 23.2447 15.6895C23.921 13.9306 24.1479 12.0393 23.9061 10.177C23.6643 8.31474 22.9609 6.53685 21.856 4.99523C20.7511 3.4536 19.2776 2.19406 17.5613 1.3242C15.845 0.454337 13.9369 0 12 0C10.0631 0 8.15503 0.454337 6.43872 1.3242C4.7224 2.19406 3.24886 3.4536 2.14398 4.99523C1.0391 6.53685 0.335709 8.31474 0.0938929 10.177C-0.147923 12.0393 0.0790229 13.9306 0.755345 15.6895C0.899154 12.9088 2.15186 10.291 4.2492 8.38819C6.34655 6.48541 9.12455 5.44646 11.9972 5.4905V5.48972Z" fill="var(--fill-0, #070F36)"/>
</svg>
